<svg width="23" height="26" viewBox="0 0 23 26" fill="none" xmlns="http://www.w3.org/2000/svg">
<path d="M11.1881 12.5346C11.2163 12.5346 11.2445 12.5346 11.2727 12.5346C11.3292 12.5346 11.3856 12.5346 11.4421 12.5346C14.7447 12.3935 17.7932 9.90952 17.8214 6.46583C17.8496 3.16328 15.0269 0.594633 11.7808 0.566406C8.59118 0.566406 5.54268 2.93747 5.31686 6.24002C5.03459 9.6837 7.85728 12.3935 11.1881 12.5346ZM11.3292 2.06243C16.7488 2.03421 17.2286 10.6999 11.7526 11.0104C9.52267 10.8692 7.71615 9.28853 7.40565 7.0586C7.06693 4.63108 8.78877 2.09066 11.3292 2.06243Z" fill="#3148B4"/>
<path d="M20.5306 16.7405C19.7121 15.3856 18.583 14.1718 17.2563 13.325C15.3933 12.1112 14.0949 14.0024 12.1755 14.1718C10.5948 14.3129 9.5786 13.7202 8.19548 13.1274C7.54626 12.8451 7.03818 12.8734 6.38896 13.1839C3.65095 14.5105 1.84442 17.7284 1.13875 20.5511C0.912933 21.4261 0.320167 23.2609 1.05407 23.9948C1.61861 24.5311 2.86059 24.644 3.59449 24.7851C6.19137 25.3214 8.8447 25.4343 11.4698 25.4343C13.8691 25.4343 16.2684 25.3214 18.6112 24.8698C19.7967 24.644 22.1396 24.5029 22.3372 23.0068C22.5912 20.9745 21.5186 18.3776 20.5306 16.7405ZM7.17931 14.3694C7.17931 14.3694 7.15108 14.3694 7.15108 14.3976C7.3769 14.2565 7.26399 14.4258 7.17931 14.3694ZM16.8047 23.656C15.0829 23.8536 13.361 23.9101 11.6392 23.9101C10.0867 23.9101 8.50598 23.8536 6.9535 23.6843C5.85265 23.5714 4.49775 23.5149 3.45336 23.0633C3.00173 22.8657 2.9735 22.9504 2.83236 22.4705C2.74768 22.1882 2.94527 21.6802 2.9735 21.3979C3.11463 20.5793 3.31222 19.7607 3.62272 18.9704C4.04612 17.8695 4.63889 16.8251 5.40101 15.9501C5.88087 15.3856 6.41718 14.9057 6.98172 14.4823C6.9535 14.5388 7.03818 14.567 7.17931 14.6234C7.29222 14.6799 7.3769 14.7363 7.48981 14.7928C8.08257 15.1033 8.70356 15.3009 9.38101 15.442C10.4819 15.6678 11.6392 15.6961 12.74 15.4985C13.8126 15.3009 14.6312 14.7928 15.5627 14.3412C16.7482 14.8775 17.8209 16.317 18.4419 17.2768C19.0346 18.18 19.4298 19.168 19.7403 20.2124C19.9661 21.0027 20.3613 22.16 20.2484 23.0633C19.3169 23.5431 17.7362 23.5714 16.8047 23.656Z" fill="#3148B4"/>
</svg>
