<svg width="28" height="30" viewBox="0 0 28 30" fill="none" xmlns="http://www.w3.org/2000/svg">
<path d="M24.6387 11.3717L4.40527 11.9516L5.69403 27.7389L25.1542 25.6769V20.393L24.6387 11.3717Z" fill="#FFD2B9"/>
<path d="M26.8939 6.50671L1.63428 8.37541L1.85981 10.9851L26.2495 10.1474L26.8939 6.50671Z" fill="#758BFD"/>
<path fill-rule="evenodd" clip-rule="evenodd" d="M14.7028 16.3437C14.6702 16.4573 14.7291 16.5045 14.8185 16.5895C15.0446 16.8046 14.8757 16.7987 15.0019 16.844L15.3221 16.9985C15.5874 17.1192 15.6672 17.2988 15.7213 17.3141C15.785 17.3321 15.7899 17.3628 15.8738 17.3669C16.0933 17.3775 15.9903 17.416 16.1106 17.4703C16.1562 17.4909 16.3314 17.5126 16.3443 17.5091C16.4243 17.487 16.4357 17.4085 16.6683 17.4118C16.7225 17.4125 16.7862 17.4118 16.839 17.416C17.0833 17.4353 16.9019 17.434 17.2568 17.3148C17.31 17.297 17.4726 17.1897 17.507 17.1369C17.5573 17.0598 17.5177 17.0765 17.5832 17.0348C17.6274 17.0066 17.7733 17.0313 17.9192 16.7583C17.9819 16.6411 17.9784 16.6734 18.0452 16.5958C18.116 16.5134 18.2374 16.1866 18.3353 16.0431C18.367 16.0076 18.3464 15.9809 18.3304 15.946C18.2777 15.7447 18.4529 15.8453 18.376 15.5699C18.2369 15.0713 18.5412 15.539 18.233 14.7068C18.2064 14.6345 18.1821 14.6117 18.132 14.547C18.0251 14.4082 18.1797 14.439 18.0119 14.3786L18.0369 14.2629L17.9883 14.1172C17.8822 14.0123 17.8579 14.1095 17.7793 13.9711C17.6704 13.7794 17.6579 13.8699 17.5206 13.7775C17.3893 13.6534 17.4454 13.7711 17.2826 13.6677C17.2517 13.6478 17.1554 13.5801 17.1245 13.5748C16.7801 13.5146 17.032 13.552 16.8815 13.5078C16.6644 13.4442 16.8443 13.6039 16.6252 13.4624C16.51 13.3879 16.5367 13.4158 16.3995 13.4804C16.2775 13.5378 16.3568 13.4773 16.2169 13.4859C16.0087 13.499 15.9553 13.5433 15.8028 13.565C15.6484 13.5871 15.7055 13.6006 15.5839 13.671C15.5388 13.6973 15.5695 13.69 15.4703 13.7163C15.2648 13.7707 15.4082 13.6949 15.281 13.8554L15.2047 13.9895C15.1953 14.0049 15.0825 14.0116 15.0547 14.0276C14.9005 14.1155 14.9664 14.0292 14.8757 14.2496C14.7714 14.5032 14.8196 14.2404 14.673 14.5216C14.652 14.5622 14.6165 14.5884 14.5832 14.6183C14.5832 14.6943 14.6065 14.7442 14.5898 14.785C14.5616 14.8535 14.5245 14.8215 14.4722 15.0478C14.4307 15.2277 14.3852 15.305 14.3883 15.4341L14.4058 15.553C14.4592 15.7388 14.3907 15.7342 14.4796 15.8672C14.5214 15.9298 14.4722 15.937 14.4555 16.0209C14.503 16.0514 14.5061 16.068 14.5594 16.0801C14.4524 16.1426 14.5366 16.2162 14.588 16.3068C14.6145 16.3601 14.6305 16.364 14.7031 16.3437H14.7028Z" fill="white"/>
<path fill-rule="evenodd" clip-rule="evenodd" d="M8.20472 14.1042C8.17215 14.2178 8.23103 14.265 8.32044 14.35C8.54656 14.5651 8.37766 14.5592 8.50387 14.6045L8.824 14.759C9.08931 14.8797 9.16916 15.0593 9.22325 15.0746C9.28691 15.0926 9.29187 15.1233 9.37577 15.1274C9.59526 15.138 9.49223 15.1765 9.61256 15.2308C9.65818 15.2514 9.83334 15.2731 9.84621 15.2696C9.92625 15.2475 9.93765 15.169 10.1702 15.1723C10.2245 15.173 10.2881 15.1723 10.3409 15.1765C10.5853 15.1958 10.4039 15.1945 10.7588 15.0753C10.8119 15.0575 10.9746 14.9502 11.009 14.8974C11.0592 14.8203 11.0197 14.837 11.0852 14.7953C11.1293 14.7671 11.2752 14.7918 11.4211 14.5188C11.4838 14.4016 11.4804 14.4339 11.5471 14.3563C11.618 14.2739 11.7394 13.9471 11.8373 13.8036C11.8689 13.7681 11.8483 13.7414 11.8323 13.7065C11.7797 13.5052 11.9548 13.6058 11.8779 13.3304C11.7388 12.8318 12.0432 13.2995 11.735 12.4673C11.7083 12.395 11.684 12.3722 11.634 12.3075C11.5271 12.1687 11.6816 12.1995 11.5138 12.1391L11.5389 12.0234L11.4903 11.8777C11.3841 11.7728 11.3598 11.8699 11.2813 11.7316C11.1724 11.5399 11.1599 11.6304 11.0226 11.538C10.8912 11.4139 10.9474 11.5316 10.7845 11.4282C10.7536 11.4083 10.6574 11.3406 10.6265 11.3353C10.2821 11.2751 10.5339 11.3125 10.3834 11.2683C10.1663 11.2047 10.3463 11.3644 10.1272 11.2229C10.012 11.1484 10.0387 11.1763 9.90141 11.2409C9.77943 11.2983 9.85873 11.2378 9.7189 11.2464C9.51063 11.2595 9.45727 11.3038 9.30475 11.3255C9.15039 11.3476 9.20743 11.3611 9.08581 11.4315C9.04074 11.4578 9.07146 11.4505 8.97229 11.4768C8.76679 11.5312 8.91011 11.4554 8.78298 11.6159L8.70662 11.75C8.69724 11.7654 8.58446 11.7721 8.55668 11.7881C8.4025 11.876 8.46836 11.7897 8.37766 12.0101C8.27334 12.2637 8.32155 12.0009 8.17491 12.2821C8.15394 12.3227 8.11843 12.3489 8.08513 12.3788C8.08513 12.4548 8.10849 12.5047 8.09175 12.5455C8.0636 12.614 8.02644 12.582 7.97419 12.8083C7.93261 12.9882 7.88716 13.0655 7.89029 13.1946L7.90777 13.3135C7.96112 13.4993 7.89268 13.4947 7.98155 13.6277C8.02331 13.6903 7.97419 13.6975 7.95744 13.7813C8.00491 13.8119 8.00804 13.8284 8.06139 13.8406C7.95432 13.9031 8.03858 13.9767 8.08991 14.0673C8.1164 14.1206 8.13241 14.1245 8.20508 14.1042H8.20472Z" fill="white"/>
<path fill-rule="evenodd" clip-rule="evenodd" d="M19.4191 21.8046C19.3865 21.9181 19.4454 21.9654 19.5348 22.0504C19.7609 22.2654 19.592 22.2595 19.7182 22.3048L20.0384 22.4594C20.3037 22.58 20.3835 22.7596 20.4376 22.7749C20.5013 22.7929 20.5062 22.8236 20.5901 22.8277C20.8096 22.8384 20.7066 22.8768 20.8269 22.9311C20.8725 22.9517 21.0477 22.9734 21.0606 22.9699C21.1406 22.9478 21.152 22.8693 21.3846 22.8726C21.4388 22.8733 21.5025 22.8726 21.5553 22.8768C21.7996 22.8961 21.6182 22.8948 21.9731 22.7756C22.0263 22.7578 22.1889 22.6505 22.2233 22.5977C22.2736 22.5206 22.234 22.5374 22.2995 22.4956C22.3437 22.4674 22.4896 22.4921 22.6355 22.2191C22.6982 22.1019 22.6947 22.1343 22.7615 22.0566C22.8323 21.9742 22.9538 21.6474 23.0516 21.5039C23.0833 21.4684 23.0627 21.4417 23.0467 21.4068C22.994 21.2055 23.1692 21.3061 23.0923 21.0307C22.9532 20.5321 23.2575 20.9998 22.9493 20.1677C22.9227 20.0954 22.8984 20.0725 22.8483 20.0078C22.7414 19.8691 22.896 19.8998 22.7282 19.8394L22.7532 19.7237L22.7046 19.578C22.5985 19.4731 22.5742 19.5703 22.4956 19.4319C22.3867 19.2402 22.3742 19.3307 22.237 19.2384C22.1056 19.1142 22.1617 19.2319 21.9989 19.1285C21.968 19.1087 21.8718 19.0409 21.8408 19.0356C21.4964 18.9754 21.7483 19.0128 21.5978 18.9686C21.3807 18.905 21.5606 19.0647 21.3415 18.9232C21.2263 18.8487 21.253 18.8766 21.1158 18.9412C20.9938 18.9986 21.0731 18.9381 20.9333 18.9467C20.725 18.9598 20.6716 19.0041 20.5191 19.0259C20.3647 19.0479 20.4218 19.0614 20.3002 19.1318C20.2551 19.1581 20.2858 19.1508 20.1867 19.1771C19.9811 19.2316 20.1245 19.1558 19.9973 19.3162L19.921 19.4503C19.9116 19.4658 19.7988 19.4724 19.771 19.4884C19.6169 19.5763 19.6827 19.49 19.592 19.7105C19.4877 19.964 19.5359 19.7013 19.3893 19.9824C19.3683 20.023 19.3328 20.0492 19.2995 20.0792C19.2995 20.1551 19.3228 20.205 19.3061 20.2459C19.278 20.3143 19.2408 20.2823 19.1885 20.5086C19.147 20.6885 19.1015 20.7658 19.1046 20.8949L19.1221 21.0138C19.1755 21.1996 19.107 21.195 19.1959 21.328C19.2377 21.3906 19.1885 21.3978 19.1718 21.4817C19.2193 21.5122 19.2224 21.5288 19.2757 21.5409C19.1687 21.6035 19.2529 21.6771 19.3043 21.7676C19.3308 21.8209 19.3468 21.8248 19.4194 21.8046H19.4191Z" fill="white"/>
<path fill-rule="evenodd" clip-rule="evenodd" d="M4.30075 18.3896C4.26818 18.5032 4.32706 18.5504 4.41647 18.6354C4.64259 18.8505 3.44269 18.8446 3.5689 18.8899L3.88903 19.0444C4.15434 19.1651 4.23418 19.3447 4.28827 19.36C4.35193 19.378 4.3569 19.4087 4.4408 19.4128C4.66029 19.4234 4.55726 19.4619 4.67758 19.5162C4.72321 19.5368 4.89836 19.5585 4.91124 19.555C4.99127 19.5329 5.00268 19.4544 5.23524 19.4577C5.28951 19.4584 5.35317 19.4577 5.40597 19.4619C5.6503 19.4812 5.46889 19.4799 5.8238 19.3607C5.87697 19.3429 6.03961 19.2356 6.07402 19.1828C6.12424 19.1057 6.08469 19.1224 6.15018 19.0807C6.19434 19.0525 6.34024 19.0772 6.48614 18.8042C6.54888 18.687 6.54538 18.7193 6.61217 18.6417C6.683 18.5593 6.80443 18.2325 6.90231 18.089C6.93395 18.0535 6.91335 18.0268 6.89734 17.9919C6.84472 17.7906 7.01987 17.8912 6.94297 17.6158C6.80388 17.1172 7.10819 17.5849 6.80001 16.7527C6.77334 16.6804 6.74905 16.6576 6.69901 16.5929C6.59211 16.4541 6.74666 16.4849 6.57887 16.4245L6.60389 16.3088L6.55532 16.1631C6.44916 16.0582 6.42487 16.1553 6.34631 16.017C6.23739 15.8253 6.22488 15.9158 6.08763 15.8234C5.95627 15.6993 6.01238 15.817 5.84956 15.7136C5.81865 15.6937 5.72242 15.626 5.69151 15.6207C5.3471 15.5605 5.59897 15.5979 5.44847 15.5537C5.23137 15.4901 5.41131 15.6498 5.19218 15.5083C5.07701 15.4338 5.10369 15.4617 4.96644 15.5263C4.84446 15.5837 4.92375 15.5232 4.78393 15.5318C4.57566 15.5449 4.5223 15.5892 4.36978 15.6109C4.21542 15.633 4.27245 15.6465 4.15084 15.7169C4.10576 15.7432 4.13649 15.7359 4.03732 15.7622C3.83181 15.8166 3.97514 15.7408 3.848 15.9013L3.77165 16.0354C3.76227 16.0508 3.64949 16.0575 3.6217 16.0735C3.46753 16.1614 4.5644 16.0751 4.47369 16.2955C4.36937 16.5491 4.41758 16.2863 4.27094 16.5675C4.24997 16.6081 4.21446 16.6343 4.18116 16.6642C4.18116 16.7402 4.20452 16.7901 4.18778 16.8309C4.15963 16.8994 4.12247 16.8674 4.07022 17.0937C4.02864 17.2736 3.98319 17.3509 3.98632 17.48L4.0038 17.5989C4.05715 17.7847 3.98871 17.7801 4.07758 17.9131C4.11934 17.9757 4.07022 17.9829 4.05347 18.0668C4.10094 18.0973 4.10407 18.1138 4.15742 18.126C4.05035 18.1885 4.13461 18.2621 4.18594 18.3527C4.21244 18.406 4.22807 18.4099 4.30075 18.3896Z" fill="white"/>
<path fill-rule="evenodd" clip-rule="evenodd" d="M7.26526 24.4548C7.2327 24.5683 7.29157 24.6156 7.38099 24.7006C7.6071 24.9157 7.43821 24.9098 7.56442 24.9551L7.88455 25.1096C8.14985 25.2303 8.2297 25.4099 8.28379 25.4252C8.34745 25.4432 8.35242 25.4739 8.43632 25.478C8.65581 25.4886 8.55278 25.5271 8.6731 25.5814C8.71873 25.602 8.89388 25.6237 8.90676 25.6202C8.98679 25.5981 8.9982 25.5195 9.23076 25.5228C9.28503 25.5236 9.34869 25.5228 9.40149 25.5271C9.64582 25.5464 9.46441 25.5451 9.81932 25.4259C9.87249 25.408 10.0351 25.3008 10.0695 25.248C10.1198 25.1709 10.0802 25.1876 10.1457 25.1459C10.1899 25.1177 10.3358 25.1424 10.4817 24.8693C10.5444 24.7521 10.5409 24.7845 10.6077 24.7069C10.6785 24.6245 10.7999 24.2977 10.8978 24.1542C10.9295 24.1187 10.9089 24.092 10.8929 24.0571C10.8402 23.8558 11.0154 23.9564 10.9385 23.681C10.7994 23.1824 11.1037 23.6501 10.7955 22.8179C10.7689 22.7456 10.7446 22.7228 10.6945 22.658C10.5876 22.5193 10.7422 22.55 10.5744 22.4897L10.5994 22.374L10.5508 22.2283C10.4447 22.1234 10.4204 22.2205 10.3418 22.0822C10.2329 21.8905 10.2204 21.981 10.0831 21.8886C9.95179 21.7644 10.0079 21.8822 9.84508 21.7788C9.81417 21.7589 9.71794 21.6912 9.68703 21.6859C9.34262 21.6257 9.59449 21.6631 9.44399 21.6189C9.22689 21.5553 9.40683 21.7149 9.1877 21.5735C9.07253 21.499 9.09921 21.5269 8.96196 21.5915C8.83998 21.6489 8.91927 21.5884 8.77945 21.597C8.57118 21.6101 8.51782 21.6544 8.3653 21.6761C8.21094 21.6982 8.26797 21.7116 8.14636 21.7821C8.10128 21.8084 8.13201 21.8011 8.03284 21.8274C7.82733 21.8818 7.97066 21.806 7.84352 21.9665L7.76717 22.1006C7.75779 22.116 7.645 22.1227 7.61722 22.1387C7.46305 22.2266 7.52891 22.1403 7.43821 22.3607C7.33389 22.6143 7.38209 22.3515 7.23546 22.6327C7.21448 22.6733 7.17898 22.6994 7.14567 22.7294C7.14567 22.8054 7.16904 22.8553 7.1523 22.8961C7.12415 22.9646 7.08698 22.9325 7.03473 23.1588C6.99315 23.3388 6.94771 23.4161 6.95084 23.5452L6.96831 23.6641C7.02167 23.8499 6.95323 23.8453 7.04209 23.9783C7.08386 24.0409 7.03473 24.048 7.01799 24.1319C7.06546 24.1625 7.06859 24.179 7.12194 24.1912C7.01486 24.2537 7.09913 24.3273 7.15046 24.4178C7.17695 24.4712 7.19296 24.4751 7.26563 24.4548H7.26526Z" fill="white"/>
<path d="M20.4768 0.0635798C20.1767 0.0911416 19.5979 0.176893 19.4815 0.213642C19.4142 0.235077 19.1539 0.305515 18.9027 0.363699C18.6516 0.424949 18.4311 0.486194 18.4128 0.501508C18.3944 0.513755 18.2412 0.571945 18.0728 0.627069C17.9044 0.682192 17.7268 0.743437 17.6747 0.767938C17.6257 0.789373 17.4511 0.862871 17.2919 0.930248C16.7223 1.16299 16.5692 1.23343 16.2354 1.40492C15.5525 1.75404 15.2432 1.96839 14.8236 2.38492C14.6031 2.60541 14.3152 2.97595 14.1988 3.18725C14.061 3.43531 13.9416 3.62824 13.9202 3.62824C13.908 3.62824 13.8834 3.59149 13.8681 3.54251C13.8222 3.41389 13.4914 2.96676 13.2281 2.67891C12.7381 2.14605 12.1991 1.68972 11.749 1.43861C10.9557 0.994559 10.0952 0.700567 9.299 0.59338C8.92536 0.544383 8.09851 0.541317 7.7831 0.59032C7.43703 0.645443 6.93173 0.752624 6.89498 0.780186C6.87971 0.79244 6.79392 0.826122 6.70819 0.850623C6.24579 0.985371 5.84459 1.30386 5.55364 1.76018C5.42502 1.9623 5.34233 2.17361 5.21986 2.61764C5.17088 2.79524 5.20453 3.36795 5.28112 3.64357C5.38827 4.02634 5.44954 4.16414 5.70064 4.60823C6.04057 5.21149 6.19675 5.39834 6.69596 5.80258C7.15837 6.17615 7.74021 6.49771 8.30373 6.69064C8.53031 6.77028 8.5426 6.77643 8.47215 6.80703C8.42925 6.82541 7.8872 6.8683 7.26247 6.90505C5.70374 6.99078 4.8248 7.05509 4.75131 7.08879C4.7176 7.10102 4.53081 7.12858 4.33788 7.14696C3.83562 7.19594 2.92609 7.3307 2.85259 7.36441C2.81894 7.37968 2.50962 7.4471 2.16354 7.51445C1.29995 7.67982 1.04271 7.75636 0.874274 7.89113C0.800776 7.95239 0.678281 8.02279 0.601723 8.04731C0.335292 8.13614 0.341413 8.11162 0.34754 9.28759C0.3506 10.4881 0.372041 10.6443 0.583348 11.0485C1.00902 11.86 1.07333 11.958 1.28158 12.0989C1.35508 12.1479 1.4837 12.2428 1.56638 12.3102C1.65216 12.3807 1.76849 12.4541 1.82672 12.4756C1.88488 12.5001 1.99513 12.546 2.07167 12.5797C2.24623 12.6563 2.68417 12.745 3.01492 12.7726L3.27216 12.7941L3.25378 13.1493C3.2446 13.3453 3.25074 13.8199 3.26912 14.2089C3.28439 14.5948 3.31195 16.2362 3.32424 17.8532C3.33951 19.4701 3.36403 20.986 3.38241 21.2218C3.40078 21.4577 3.44672 22.0303 3.48042 22.4927C3.51717 22.9552 3.55696 23.3839 3.5723 23.4421C3.58757 23.5003 3.62127 23.9964 3.64884 24.5446C3.67335 25.0927 3.70092 25.6348 3.7101 25.7542C3.7499 26.2687 3.82644 26.9516 3.84791 26.9792C3.86014 26.9945 3.88156 27.1476 3.89075 27.316C3.92141 27.7264 3.97343 27.9683 4.07759 28.146C4.12353 28.2287 4.23682 28.4338 4.32869 28.6022C4.49102 28.9024 4.53386 28.9514 4.90749 29.2699C5.05753 29.3985 5.08819 29.4138 5.17392 29.3985C5.22904 29.3863 5.31477 29.3495 5.3699 29.3188C5.49243 29.2423 5.84155 29.2362 7.43094 29.2729C8.72939 29.3036 10.2943 29.2485 12.6217 29.0923C12.9586 29.0677 13.8834 29.0096 14.6735 28.9575C15.4667 28.9054 16.3272 28.8411 16.5875 28.8197C17.6594 28.7217 19.4877 28.5257 19.5887 28.4981C19.6469 28.4798 19.8337 28.4522 20.0021 28.4338C20.6361 28.3634 21.5058 28.247 21.6099 28.2164C21.6681 28.2011 22.1306 28.1337 22.6358 28.0663C24.1242 27.8734 24.703 27.7723 25.392 27.5825C25.7503 27.4845 25.8881 27.4324 25.9524 27.3711C25.9739 27.3497 26.0076 27.3314 26.0228 27.3314C26.0596 27.3314 26.2954 27.117 26.2954 27.0803C26.2954 27.0649 26.323 27.0251 26.3536 26.9914C26.3873 26.9547 26.421 26.8934 26.4332 26.8506C26.4608 26.7311 26.5802 26.4923 26.6262 26.4586C26.6476 26.4402 26.6751 26.3637 26.6843 26.2902C26.6935 26.2136 26.718 26.1309 26.7395 26.1064C26.7609 26.0819 26.8099 25.9441 26.8497 25.8001C26.9263 25.5092 26.9661 24.8538 26.911 24.7436C26.8834 24.6885 26.8558 24.4772 26.6935 23.0287C26.6384 22.5448 26.4087 20.689 26.3107 19.9448C26.2648 19.5804 26.1546 18.3432 26.1239 17.8225C26.1117 17.6358 26.0933 17.4704 26.0811 17.4551C26.0688 17.4367 26.0504 17.2315 26.0382 16.9957C25.9769 15.7676 25.8575 14.1966 25.8055 14.0098C25.7687 13.872 25.5421 11.9641 25.5604 11.9457C25.5696 11.9397 25.7963 11.8968 26.0657 11.8508C26.3352 11.8049 26.571 11.759 26.5864 11.7436C26.6047 11.7314 26.6782 11.71 26.7548 11.6977C26.8313 11.6885 26.9722 11.6579 27.0671 11.6303C27.2846 11.5722 27.4346 11.4221 27.5387 11.1556C27.5786 11.0515 27.6337 10.9443 27.6582 10.9168C27.6827 10.8892 27.7041 10.8188 27.7041 10.7576C27.7041 10.6902 27.7256 10.632 27.7623 10.5983C27.8297 10.5371 27.8787 10.3625 27.9185 10.0471C27.9583 9.72243 27.9277 9.50504 27.8113 9.30901C27.7562 9.22024 27.7225 9.13445 27.7348 9.11918C27.747 9.10689 27.7991 8.88639 27.845 8.63529C27.9185 8.2341 27.9307 8.09939 27.9307 7.57876C27.9338 7.0459 27.9277 6.95707 27.8634 6.74272C27.8266 6.61106 27.7562 6.43035 27.7103 6.34462C27.6643 6.2558 27.6214 6.11799 27.6122 6.03834C27.597 5.89445 27.5939 5.88831 27.4438 5.82704C27.3611 5.79339 27.1927 5.71679 27.0733 5.65862C26.8007 5.52386 26.7119 5.53 26.6997 5.68314L26.6905 5.79029L25.6278 5.87608C25.0429 5.92201 24.5161 5.97099 24.458 5.98632C24.2712 6.0353 22.1214 6.15778 20.7677 6.20067C20.1951 6.21905 19.6684 6.24661 19.5949 6.26194C19.4295 6.30173 19.2518 6.30173 19.2518 6.26498C19.2518 6.24965 19.3253 6.20986 19.4142 6.17615C19.7449 6.05063 21.172 5.26972 21.273 5.15947C21.2822 5.15028 21.3404 5.11043 21.4078 5.07368C21.7783 4.85629 22.351 4.32033 22.7002 3.86097C22.9421 3.53637 23.0339 3.37714 23.3555 2.69418C23.429 2.538 23.5301 2.16442 23.5729 1.89489C23.6648 1.31917 23.5546 0.917995 23.2361 0.65463C22.9421 0.415762 22.351 0.192202 21.8182 0.12483C21.4537 0.078894 20.7096 0.0452053 20.4768 0.0635798ZM22.1305 1.54273C22.2071 1.56417 22.3112 1.59785 22.3663 1.62235C22.4184 1.64685 22.4766 1.66829 22.498 1.66829C22.5409 1.66829 22.5348 1.70198 22.4398 2.02047C22.3755 2.23178 22.1152 2.66358 21.9468 2.83509C21.9039 2.87793 21.8274 2.96061 21.7753 3.01884C21.515 3.30669 21.1046 3.57616 20.385 3.92838C20.0726 4.07842 19.7847 4.21318 19.7419 4.22541C19.699 4.23764 19.5979 4.28358 19.5183 4.32343C19.4356 4.36322 19.2488 4.43976 19.1048 4.4888C18.9578 4.54082 18.7986 4.59905 18.7465 4.62351C18.6976 4.64498 18.5598 4.69396 18.4403 4.73071C18.3239 4.76746 18.0882 4.844 17.9197 4.89913C17.7513 4.95735 17.5094 5.03389 17.3838 5.0676C17.2582 5.10435 17.1143 5.15028 17.0622 5.17474C17.0133 5.19622 16.8111 5.25743 16.6182 5.31255C16.4253 5.36767 16.2537 5.4228 16.2354 5.43509C16.22 5.45036 16.0179 5.50548 15.7913 5.55756C15.5647 5.61269 15.2891 5.68004 15.1788 5.71375C14.9461 5.7811 14.4071 5.90054 14.3979 5.88831C14.3949 5.88216 14.401 5.80258 14.4102 5.70456C14.4255 5.5698 14.4592 5.49325 14.5603 5.3493C14.6307 5.24824 14.6889 5.15637 14.6889 5.14718C14.6889 5.11353 15.2646 4.28972 15.4575 4.04471C15.6443 3.81199 16.0333 3.4445 16.2109 3.33425C16.2568 3.30364 16.3119 3.26689 16.3272 3.24852C16.4742 3.08924 17.6472 2.44613 18.1494 2.24401C18.2749 2.19503 18.3944 2.14295 18.4097 2.12767C18.4281 2.11539 18.5935 2.05108 18.7772 1.98987C18.964 1.92556 19.1294 1.86124 19.1477 1.84591C19.1661 1.83368 19.3713 1.77242 19.601 1.71729C19.8306 1.6591 20.0328 1.60092 20.0481 1.59173C20.0665 1.57948 20.2135 1.55192 20.3788 1.53048C20.7279 1.47842 21.9131 1.49067 22.1305 1.54273ZM8.70797 2.06641C8.92232 2.08478 9.12748 2.11234 9.16119 2.12767C9.19489 2.13991 9.31123 2.17051 9.42148 2.18888C9.70938 2.24096 10.1259 2.34202 10.2331 2.38796C10.2851 2.40938 10.4352 2.4676 10.5699 2.51354C10.8608 2.6146 11.3692 2.87489 11.6172 3.0464C12.1562 3.41998 12.8483 4.15806 13.1852 4.71538L13.2893 4.88689L13.2924 5.49021C13.2955 5.82095 13.3077 6.11494 13.323 6.1425C13.3352 6.17615 13.3292 6.19763 13.3016 6.20986C13.2587 6.22519 12.4227 6.03834 12.3155 5.98632C12.2818 5.97099 12.0398 5.90972 11.7796 5.84851C11.5193 5.78725 11.2773 5.72598 11.2437 5.7107C11.1732 5.677 10.6189 5.55452 10.2943 5.4994C10.1779 5.47792 10.0524 5.45036 10.0186 5.43509C9.985 5.41976 9.86861 5.39524 9.75836 5.37382C9.44295 5.3187 8.8672 5.18703 8.81207 5.15947C8.78451 5.14414 8.61914 5.08901 8.44154 5.03389C7.72493 4.81035 7.19207 4.45205 6.85519 3.95898C6.80007 3.87934 6.75717 3.80894 6.75717 3.79976C6.75717 3.79057 6.71434 3.69559 6.66226 3.59149C6.55505 3.371 6.47237 3.00046 6.50303 2.85955C6.52445 2.75241 6.76946 2.48598 6.95625 2.36654C7.15532 2.24097 7.59017 2.09701 7.85046 2.06945C8.19653 2.0327 8.27307 2.0327 8.70797 2.06641ZM26.4026 6.95707C26.3903 7.02138 26.3689 7.08879 26.3567 7.10407C26.3414 7.12244 26.3016 7.30929 26.2648 7.51749C26.1944 7.93402 26.1117 8.28922 26.0841 8.31374C26.032 8.35353 25.8881 9.03035 25.8728 9.28759C25.8636 9.456 25.8452 9.57854 25.8238 9.58463C25.8055 9.59077 25.1011 9.63366 24.2589 9.6765C23.4168 9.71939 22.5011 9.76837 22.2224 9.78675C21.0617 9.8572 20.7371 9.87253 19.5122 9.90314C16.4559 9.98582 15.9659 9.99805 15.528 10.0164L15.0656 10.0348L14.9522 9.21714C14.891 8.76696 14.8267 8.37191 14.8114 8.34435C14.796 8.31374 14.7776 8.18816 14.7746 8.06568L14.7654 7.84215L14.9492 7.8023C15.0502 7.78088 15.5065 7.74413 15.9598 7.71961C16.4161 7.69205 16.9398 7.6584 17.1235 7.64307C17.3103 7.6247 17.6043 7.60328 17.7819 7.59409C18.5751 7.55424 20.7585 7.41953 21.025 7.39502C21.1873 7.38278 21.7937 7.32766 22.3755 7.27558C22.9574 7.2235 23.625 7.15919 23.8608 7.13473C24.7091 7.04894 25.7136 6.93565 26.0228 6.89276C26.1974 6.87134 26.3597 6.84992 26.3842 6.84682C26.4149 6.84378 26.421 6.87134 26.4026 6.95707ZM13.2557 8.97827C13.2495 9.59691 13.2342 10.0807 13.2189 10.0899C13.2036 10.0991 12.2297 10.1328 11.0538 10.1634C8.9407 10.2185 6.18756 10.3319 6.1294 10.3717C6.11406 10.3809 5.54755 10.4084 4.87074 10.4299C3.89994 10.4605 3.56001 10.4605 3.23541 10.4299C3.00877 10.4084 2.80975 10.3809 2.79138 10.3686C2.77605 10.3533 2.71174 10.3349 2.65661 10.3227C2.38714 10.2737 2.31364 10.24 2.28298 10.1573C2.24623 10.0655 2.18806 9.44073 2.18192 9.06709L2.17888 8.82518L2.33202 8.78843C2.41774 8.77006 2.50347 8.74554 2.52185 8.73331C2.56778 8.70575 3.39159 8.60159 4.18474 8.52809C4.54614 8.49444 4.98099 8.45459 5.1494 8.43622C5.31787 8.42094 5.86297 8.38724 6.35908 8.35968C8.29144 8.26166 8.98359 8.21883 9.17652 8.19126C9.28677 8.17593 10.0921 8.11162 10.968 8.05345C11.8439 7.99523 12.6217 7.93402 12.6983 7.91869C12.7748 7.90646 12.9341 7.89113 13.0504 7.88808L13.2648 7.88498L13.2557 8.97827ZM24.2436 12.2918C24.2436 12.4266 24.265 12.8768 24.2896 13.2963C24.3539 14.3467 24.3967 15.7125 24.3967 16.6496C24.3967 17.0845 24.409 17.498 24.4274 17.5683C24.4426 17.6418 24.4702 18.092 24.4886 18.5729C24.5161 19.3293 24.6356 21.2249 24.6876 21.7271C24.7642 22.4652 24.804 25.0376 24.7397 25.1019C24.6723 25.1693 24.118 25.2642 23.1411 25.3714C22.694 25.4204 22.103 25.4878 21.8243 25.5215C21.2087 25.598 20.0175 25.7083 19.8214 25.7083C19.7449 25.7083 19.6561 25.7205 19.6255 25.7358C19.5979 25.7512 19.2917 25.7787 18.9456 25.7971C18.5995 25.8155 17.9258 25.8522 17.445 25.8767C16.9642 25.9012 16.4651 25.9287 16.3364 25.9349L16.1006 25.9502L16.1343 25.8675C16.1527 25.8216 16.1772 25.7573 16.1894 25.7236C16.364 25.2826 16.3793 24.4557 16.2354 23.3502C16.2109 23.1726 16.1343 22.5601 16.067 21.9874C15.9965 21.4148 15.9261 20.9187 15.9138 20.8849C15.8557 20.7441 15.7699 19.513 15.6995 17.746C15.6841 17.3173 15.6566 16.8946 15.6382 16.812C15.6106 16.6619 15.5769 16.1505 15.4545 13.9333C15.4208 13.3269 15.3779 12.7879 15.3626 12.7359C15.3442 12.6838 15.332 12.5797 15.332 12.5001V12.3561L15.4943 12.3531C15.58 12.35 15.8526 12.3378 16.0976 12.3224C17.2246 12.2581 18.6822 12.2061 20.091 12.1754C22.4214 12.1234 24.1334 12.0775 24.1486 12.0621C24.1548 12.056 24.1793 12.0499 24.2038 12.0499C24.2344 12.0499 24.2436 12.1111 24.2436 12.2918ZM13.2311 13.7404C13.2097 15.2532 13.2617 19.4365 13.3138 20.2327C13.3475 20.738 13.3812 21.081 13.5251 22.263C13.5588 22.5478 13.6201 23.0868 13.6629 23.4574C13.764 24.3761 13.8222 24.8018 13.8773 25.0835C13.9263 25.3255 14.1591 25.889 14.2509 25.99C14.2907 26.036 14.2907 26.0451 14.2571 26.0574C14.2326 26.0666 13.8345 26.1033 13.372 26.137C12.9096 26.1738 12.3522 26.2227 12.1317 26.2442C11.9143 26.2687 11.3478 26.3299 10.8762 26.3789C10.4045 26.431 9.85942 26.4923 9.66649 26.5198C9.47356 26.5474 8.81822 26.627 8.21186 26.7005C7.6055 26.7709 7.08791 26.8383 7.06345 26.8506C7.03893 26.8598 6.80621 26.8873 6.54897 26.9087L6.08346 26.9516L6.05285 26.8414C5.99773 26.627 5.88438 25.301 5.82317 24.1464C5.81399 23.9535 5.79251 23.7453 5.77724 23.6871C5.76191 23.6289 5.70064 22.9736 5.63943 22.2324C5.5812 21.4913 5.51689 20.8237 5.50162 20.7471C5.46177 20.545 5.44339 20.0367 5.40975 18.1135C5.3699 15.9177 5.29335 14.2487 5.226 14.0864C5.20763 14.0374 5.10042 12.9594 5.10347 12.8277C5.10347 12.8063 5.25661 12.7879 5.54141 12.7757C6.74798 12.7206 8.94069 12.595 9.11525 12.5674C9.2255 12.5521 10.1687 12.5123 11.213 12.4817C12.2573 12.451 13.1423 12.4235 13.1822 12.4204L13.2495 12.4174L13.2311 13.7404Z" fill="#3148B4"/>
</svg>
