<svg width="120" height="28" viewBox="0 0 120 28" fill="none" xmlns="http://www.w3.org/2000/svg">
<path d="M2.02301 27.272V6.1184L0 1.14868H10.6335C12.8487 1.14868 14.682 1.44521 16.1335 2.03826C17.5552 2.60231 18.7132 3.6649 19.383 5.02009C20.0961 6.42321 20.4535 8.33407 20.4552 10.7527C20.4552 14.0907 19.6426 16.4977 18.0174 17.9737C16.3923 19.4497 13.931 20.1877 10.6335 20.1877H9.22999V27.272H2.02301ZM9.22999 15.0067C10.4101 15.0067 11.2901 14.692 11.87 14.0625C12.4499 13.433 12.7391 12.3082 12.7374 10.6881C12.7374 9.45391 12.6329 8.52209 12.4238 7.89259C12.3479 7.61575 12.213 7.35788 12.0282 7.136C11.8434 6.91413 11.6128 6.73329 11.3516 6.60543C10.6761 6.34492 9.95235 6.22723 9.22746 6.26004L9.22999 15.0067Z" fill="white"/>
<path d="M29.6878 18.3812C29.6878 19.6634 29.8353 20.5886 30.1303 21.1568C30.2625 21.4134 30.4644 21.6289 30.7138 21.7795C30.9631 21.93 31.25 22.0097 31.5426 22.0097C31.8352 22.0097 32.1222 21.93 32.3715 21.7795C32.6208 21.6289 32.8227 21.4134 32.9549 21.1568C33.2382 20.5886 33.3798 19.6634 33.3798 18.3812V1.14624H40.5817V18.0433C40.5817 21.4045 39.8433 23.8413 38.3665 25.3538C36.8897 26.8662 34.6138 27.6224 31.5388 27.6224C28.4874 27.6224 26.2166 26.8662 24.7263 25.3538C23.236 23.8413 22.4892 21.4086 22.4858 18.0557V1.15866H29.6878V18.3812Z" fill="white"/>
<path d="M43.7173 1.14624H50.9167V21.1022H59.077L57.9315 27.2696H43.7173V1.14624Z" fill="white"/>
<path d="M60.9231 1.14624H68.1225V21.1022H76.2828L75.1373 27.2696H60.9231V1.14624Z" fill="white"/>
<path d="M87.2878 27.6348C84.8754 27.6348 82.9308 27.2289 81.454 26.4172C79.9772 25.6055 78.8999 24.2272 78.2222 22.2824C77.5479 20.3359 77.2107 17.6572 77.2107 14.2463C77.2107 10.8355 77.5479 8.15678 78.2222 6.21031C78.8965 4.26383 79.9738 2.88473 81.454 2.07301C82.9341 1.26129 84.8788 0.856259 87.2878 0.857915C89.6986 0.857915 91.6432 1.26295 93.1217 2.07301C94.6002 2.88308 95.6749 4.26217 96.3459 6.21031C97.0202 8.15678 97.3574 10.8355 97.3574 14.2463C97.3574 17.6572 97.0202 20.3359 96.3459 22.2824C95.6715 24.2338 94.5968 25.6121 93.1217 26.4172C91.6466 27.2223 89.702 27.6281 87.2878 27.6348ZM89.6143 14.1743C89.6373 12.5815 89.5697 10.9887 89.412 9.40335C89.2771 8.30339 89.0436 7.54136 88.7115 7.11728C88.5363 6.91797 88.3195 6.75809 88.0758 6.6485C87.8321 6.53891 87.5672 6.48218 87.2992 6.48218C87.0312 6.48218 86.7663 6.53891 86.5226 6.6485C86.2789 6.75809 86.0621 6.91797 85.8869 7.11728C85.5497 7.54136 85.3095 8.30339 85.1662 9.40335C85.0067 10.9886 84.9383 12.5815 84.9614 14.1743C84.94 15.7729 85.0083 17.3714 85.1662 18.9626C85.3011 20.099 85.5413 20.8917 85.8869 21.3406C86.0557 21.5497 86.2704 21.7185 86.515 21.8346C86.7595 21.9507 87.0276 22.011 87.2992 22.011C87.5708 22.011 87.8389 21.9507 88.0834 21.8346C88.328 21.7185 88.5427 21.5497 88.7115 21.3406C89.0487 20.8933 89.2822 20.1007 89.412 18.9626C89.5672 17.3713 89.6339 15.7728 89.6118 14.1743H89.6143Z" fill="white"/>
<path d="M107.778 1.14624L112.985 16.0554V1.14624H120.002V27.2721H111.359L106.633 13.7022V27.2721H99.6181V4.88596L98.1008 1.15866L107.778 1.14624Z" fill="white"/>
</svg>
